<mxfile host="app.diagrams.net" agent="Mozilla/5.0 (Macintosh; Intel Mac OS X 10_15_7) AppleWebKit/537.36 (KHTML, like Gecko) Chrome/131.0.0.0 Safari/537.36" version="25.0.3">
  <diagram name="第 1 页" id="40uk6Nibieu20du29q6h">
    <mxGraphModel dx="1093" dy="646" grid="1" gridSize="10" guides="1" tooltips="1" connect="1" arrows="1" fold="1" page="1" pageScale="1" pageWidth="827" pageHeight="1169" math="0" shadow="0">
      <root>
        <mxCell id="0" />
        <mxCell id="1" parent="0" />
        <mxCell id="37Him12QvSyiaNCZVlA_-21" value="程序初始化" style="swimlane;horizontal=0;whiteSpace=wrap;html=1;" vertex="1" parent="1">
          <mxGeometry x="40" y="190" width="180" height="530" as="geometry">
            <mxRectangle x="290" y="100" width="40" height="90" as="alternateBounds" />
          </mxGeometry>
        </mxCell>
        <mxCell id="37Him12QvSyiaNCZVlA_-16" value="&lt;p&gt;&lt;strong&gt;点阵 LED 初始化&lt;/strong&gt;：&lt;span style=&quot;background-color: initial;&quot;&gt;对行列端口 (ROW1, ROW2, COL1, COL2) 进行初始化。&lt;/span&gt;&lt;/p&gt;" style="rounded=0;whiteSpace=wrap;html=1;" vertex="1" parent="37Him12QvSyiaNCZVlA_-21">
          <mxGeometry x="40" y="460" width="120" height="60" as="geometry" />
        </mxCell>
        <mxCell id="37Him12QvSyiaNCZVlA_-3" value="&lt;p&gt;&lt;strong&gt;栈初始化&lt;/strong&gt;：&lt;span style=&quot;background-color: initial;&quot;&gt;定义栈空间（512字节）。&lt;/span&gt;&lt;/p&gt;" style="rounded=0;whiteSpace=wrap;html=1;" vertex="1" parent="37Him12QvSyiaNCZVlA_-21">
          <mxGeometry x="40" y="20" width="120" height="60" as="geometry" />
        </mxCell>
        <mxCell id="37Him12QvSyiaNCZVlA_-10" value="&lt;p&gt;&lt;strong&gt;段寄存器设置&lt;/strong&gt;：&lt;span style=&quot;background-color: initial;&quot;&gt;将 &lt;/span&gt;&lt;code style=&quot;background-color: initial;&quot;&gt;CS&lt;/code&gt;&lt;span style=&quot;background-color: initial;&quot;&gt;、&lt;/span&gt;&lt;code style=&quot;background-color: initial;&quot;&gt;SS&lt;/code&gt;&lt;span style=&quot;background-color: initial;&quot;&gt; 和 &lt;/span&gt;&lt;code style=&quot;background-color: initial;&quot;&gt;DS&lt;/code&gt;&lt;span style=&quot;background-color: initial;&quot;&gt; 寄存器设置为相应的段地址。&lt;/span&gt;&lt;/p&gt;" style="rounded=0;whiteSpace=wrap;html=1;" vertex="1" parent="37Him12QvSyiaNCZVlA_-21">
          <mxGeometry x="40" y="100" width="120" height="60" as="geometry" />
        </mxCell>
        <mxCell id="37Him12QvSyiaNCZVlA_-11" style="edgeStyle=orthogonalEdgeStyle;rounded=0;orthogonalLoop=1;jettySize=auto;html=1;exitX=0.5;exitY=1;exitDx=0;exitDy=0;entryX=0.5;entryY=0;entryDx=0;entryDy=0;" edge="1" parent="37Him12QvSyiaNCZVlA_-21" source="37Him12QvSyiaNCZVlA_-3" target="37Him12QvSyiaNCZVlA_-10">
          <mxGeometry relative="1" as="geometry" />
        </mxCell>
        <mxCell id="37Him12QvSyiaNCZVlA_-44" style="edgeStyle=orthogonalEdgeStyle;rounded=0;orthogonalLoop=1;jettySize=auto;html=1;exitX=0.5;exitY=1;exitDx=0;exitDy=0;entryX=0.5;entryY=0;entryDx=0;entryDy=0;" edge="1" parent="37Him12QvSyiaNCZVlA_-21" source="37Him12QvSyiaNCZVlA_-12" target="37Him12QvSyiaNCZVlA_-13">
          <mxGeometry relative="1" as="geometry" />
        </mxCell>
        <mxCell id="37Him12QvSyiaNCZVlA_-12" value="&lt;p&gt;&lt;strong&gt;中断向量表设置&lt;/strong&gt;：&lt;span style=&quot;background-color: initial;&quot;&gt;设置 IRQ7 的中断向量地址。将中断服务程序地址存入向量表。&lt;/span&gt;&lt;/p&gt;" style="rounded=0;whiteSpace=wrap;html=1;" vertex="1" parent="37Him12QvSyiaNCZVlA_-21">
          <mxGeometry x="40" y="180" width="120" height="60" as="geometry" />
        </mxCell>
        <mxCell id="37Him12QvSyiaNCZVlA_-17" style="edgeStyle=orthogonalEdgeStyle;rounded=0;orthogonalLoop=1;jettySize=auto;html=1;exitX=0.5;exitY=1;exitDx=0;exitDy=0;entryX=0.5;entryY=0;entryDx=0;entryDy=0;" edge="1" parent="37Him12QvSyiaNCZVlA_-21" source="37Him12QvSyiaNCZVlA_-10" target="37Him12QvSyiaNCZVlA_-12">
          <mxGeometry relative="1" as="geometry" />
        </mxCell>
        <mxCell id="37Him12QvSyiaNCZVlA_-14" value="&lt;p&gt;&lt;strong&gt;设置 8254 定时器&lt;/strong&gt;：&lt;span style=&quot;background-color: initial;&quot;&gt;设置控制寄存器和初始计数值。&lt;/span&gt;&lt;/p&gt;" style="rounded=0;whiteSpace=wrap;html=1;" vertex="1" parent="37Him12QvSyiaNCZVlA_-21">
          <mxGeometry x="40" y="360" width="120" height="60" as="geometry" />
        </mxCell>
        <mxCell id="37Him12QvSyiaNCZVlA_-20" value="" style="edgeStyle=orthogonalEdgeStyle;rounded=0;orthogonalLoop=1;jettySize=auto;html=1;" edge="1" parent="37Him12QvSyiaNCZVlA_-21" source="37Him12QvSyiaNCZVlA_-14" target="37Him12QvSyiaNCZVlA_-16">
          <mxGeometry relative="1" as="geometry" />
        </mxCell>
        <mxCell id="37Him12QvSyiaNCZVlA_-45" style="edgeStyle=orthogonalEdgeStyle;rounded=0;orthogonalLoop=1;jettySize=auto;html=1;exitX=0.5;exitY=1;exitDx=0;exitDy=0;" edge="1" parent="37Him12QvSyiaNCZVlA_-21" source="37Him12QvSyiaNCZVlA_-13" target="37Him12QvSyiaNCZVlA_-14">
          <mxGeometry relative="1" as="geometry" />
        </mxCell>
        <mxCell id="37Him12QvSyiaNCZVlA_-13" value="&lt;p&gt;&lt;strong&gt;初始化 8259 中断控制器&lt;/strong&gt;：&lt;span style=&quot;background-color: initial;&quot;&gt;发送 ICW1、ICW2、ICW3 和 ICW4。允许中断（OCW1）。&lt;/span&gt;&lt;/p&gt;" style="rounded=0;whiteSpace=wrap;html=1;" vertex="1" parent="37Him12QvSyiaNCZVlA_-21">
          <mxGeometry x="40" y="260" width="120" height="80" as="geometry" />
        </mxCell>
        <mxCell id="37Him12QvSyiaNCZVlA_-70" style="edgeStyle=orthogonalEdgeStyle;rounded=0;orthogonalLoop=1;jettySize=auto;html=1;exitX=0.5;exitY=1;exitDx=0;exitDy=0;entryX=0.5;entryY=0;entryDx=0;entryDy=0;" edge="1" parent="1" source="37Him12QvSyiaNCZVlA_-2" target="37Him12QvSyiaNCZVlA_-3">
          <mxGeometry relative="1" as="geometry" />
        </mxCell>
        <mxCell id="37Him12QvSyiaNCZVlA_-2" value="&lt;font&gt;开始&lt;/font&gt;" style="shape=parallelogram;perimeter=parallelogramPerimeter;whiteSpace=wrap;html=1;fixedSize=1;" vertex="1" parent="1">
          <mxGeometry x="280" y="100" width="120" height="60" as="geometry" />
        </mxCell>
        <mxCell id="37Him12QvSyiaNCZVlA_-31" value="主程序逻辑" style="swimlane;horizontal=0;whiteSpace=wrap;html=1;" vertex="1" parent="1">
          <mxGeometry x="240" y="560" width="200" height="160" as="geometry" />
        </mxCell>
        <mxCell id="37Him12QvSyiaNCZVlA_-15" value="&lt;p&gt;&lt;strong&gt;空格键检测&lt;/strong&gt;：&lt;span style=&quot;background-color: initial;&quot;&gt;如果按下空格键：&lt;/span&gt;&lt;span style=&quot;background-color: initial;&quot;&gt;开启 8254 定时器。&lt;/span&gt;&lt;span style=&quot;background-color: initial;&quot;&gt;进入 LED 显示主逻辑。&lt;/span&gt;&lt;/p&gt;" style="rounded=0;whiteSpace=wrap;html=1;" vertex="1" parent="37Him12QvSyiaNCZVlA_-31">
          <mxGeometry x="50" y="10" width="120" height="60" as="geometry" />
        </mxCell>
        <mxCell id="37Him12QvSyiaNCZVlA_-41" style="edgeStyle=orthogonalEdgeStyle;rounded=0;orthogonalLoop=1;jettySize=auto;html=1;exitX=0.5;exitY=0;exitDx=0;exitDy=0;entryX=0.5;entryY=1;entryDx=0;entryDy=0;" edge="1" parent="37Him12QvSyiaNCZVlA_-31" source="37Him12QvSyiaNCZVlA_-26" target="37Him12QvSyiaNCZVlA_-15">
          <mxGeometry relative="1" as="geometry" />
        </mxCell>
        <mxCell id="37Him12QvSyiaNCZVlA_-26" value="&lt;p&gt;&lt;strong&gt;等待用户输入&lt;/strong&gt;：&lt;span style=&quot;background-color: initial;&quot;&gt;进入循环检测键盘输入，等待用户按下空格键。&lt;/span&gt;&lt;/p&gt;" style="whiteSpace=wrap;html=1;rounded=0;" vertex="1" parent="37Him12QvSyiaNCZVlA_-31">
          <mxGeometry x="50" y="90" width="120" height="60" as="geometry" />
        </mxCell>
        <mxCell id="37Him12QvSyiaNCZVlA_-33" value="LED 点阵显示逻辑" style="swimlane;horizontal=0;whiteSpace=wrap;html=1;" vertex="1" parent="1">
          <mxGeometry x="240" y="190" width="200" height="350" as="geometry" />
        </mxCell>
        <mxCell id="37Him12QvSyiaNCZVlA_-38" style="edgeStyle=orthogonalEdgeStyle;rounded=0;orthogonalLoop=1;jettySize=auto;html=1;exitX=0.5;exitY=0;exitDx=0;exitDy=0;entryX=0.5;entryY=1;entryDx=0;entryDy=0;" edge="1" parent="37Him12QvSyiaNCZVlA_-33" source="37Him12QvSyiaNCZVlA_-30" target="37Him12QvSyiaNCZVlA_-34">
          <mxGeometry relative="1" as="geometry" />
        </mxCell>
        <mxCell id="37Him12QvSyiaNCZVlA_-30" value="&lt;p&gt;&lt;strong&gt;加载字符表地址&lt;/strong&gt;：&lt;span style=&quot;background-color: initial;&quot;&gt;根据当前 &lt;/span&gt;&lt;code style=&quot;background-color: initial;&quot;&gt;STEP&lt;/code&gt;&lt;span style=&quot;background-color: initial;&quot;&gt; 偏移量，加载字符数据。&lt;/span&gt;&lt;/p&gt;" style="rounded=0;whiteSpace=wrap;html=1;" vertex="1" parent="37Him12QvSyiaNCZVlA_-33">
          <mxGeometry x="50" y="270" width="120" height="60" as="geometry" />
        </mxCell>
        <mxCell id="37Him12QvSyiaNCZVlA_-59" style="edgeStyle=orthogonalEdgeStyle;rounded=0;orthogonalLoop=1;jettySize=auto;html=1;exitX=0.5;exitY=0;exitDx=0;exitDy=0;" edge="1" parent="37Him12QvSyiaNCZVlA_-33" source="37Him12QvSyiaNCZVlA_-34" target="37Him12QvSyiaNCZVlA_-29">
          <mxGeometry relative="1" as="geometry" />
        </mxCell>
        <mxCell id="37Him12QvSyiaNCZVlA_-34" value="&lt;p&gt;&lt;strong&gt;行列扫描&lt;/strong&gt;：&lt;span style=&quot;background-color: initial;&quot;&gt;行循环：依次激活每行。列扫描：加载字符点阵数据并输出到相应的列端口。&lt;/span&gt;&lt;/p&gt;" style="rounded=0;whiteSpace=wrap;html=1;" vertex="1" parent="37Him12QvSyiaNCZVlA_-33">
          <mxGeometry x="50" y="170" width="120" height="80" as="geometry" />
        </mxCell>
        <mxCell id="37Him12QvSyiaNCZVlA_-60" style="edgeStyle=orthogonalEdgeStyle;rounded=0;orthogonalLoop=1;jettySize=auto;html=1;exitX=0.5;exitY=0;exitDx=0;exitDy=0;" edge="1" parent="37Him12QvSyiaNCZVlA_-33" source="37Him12QvSyiaNCZVlA_-29" target="37Him12QvSyiaNCZVlA_-40">
          <mxGeometry relative="1" as="geometry" />
        </mxCell>
        <mxCell id="37Him12QvSyiaNCZVlA_-29" value="&lt;p&gt;&lt;strong&gt;延时处理&lt;/strong&gt;：&lt;span style=&quot;background-color: initial;&quot;&gt;调用 &lt;/span&gt;&lt;code style=&quot;background-color: initial;&quot;&gt;DELAY&lt;/code&gt;&lt;span style=&quot;background-color: initial;&quot;&gt; 子程序，在每行每列间插入延迟。&lt;/span&gt;&lt;/p&gt;" style="rounded=0;whiteSpace=wrap;html=1;" vertex="1" parent="37Him12QvSyiaNCZVlA_-33">
          <mxGeometry x="50" y="90" width="120" height="60" as="geometry" />
        </mxCell>
        <mxCell id="37Him12QvSyiaNCZVlA_-40" value="&lt;p&gt;&lt;strong&gt;结束后调整&lt;/strong&gt;：&lt;span style=&quot;background-color: initial;&quot;&gt;每完成一次点阵显示，更新 &lt;/span&gt;&lt;code style=&quot;background-color: initial;&quot;&gt;STEP&lt;/code&gt;&lt;span style=&quot;background-color: initial;&quot;&gt; 偏移量以显示下一个字符。&lt;/span&gt;&lt;/p&gt;" style="rounded=0;whiteSpace=wrap;html=1;" vertex="1" parent="37Him12QvSyiaNCZVlA_-33">
          <mxGeometry x="50" y="10" width="120" height="60" as="geometry" />
        </mxCell>
        <mxCell id="37Him12QvSyiaNCZVlA_-36" value="" style="edgeStyle=orthogonalEdgeStyle;rounded=0;orthogonalLoop=1;jettySize=auto;html=1;" edge="1" parent="1" source="37Him12QvSyiaNCZVlA_-15" target="37Him12QvSyiaNCZVlA_-30">
          <mxGeometry relative="1" as="geometry" />
        </mxCell>
        <mxCell id="37Him12QvSyiaNCZVlA_-42" value="中断服务程序 (IRQ7)" style="swimlane;horizontal=0;whiteSpace=wrap;html=1;" vertex="1" parent="1">
          <mxGeometry x="460" y="190" width="180" height="260" as="geometry" />
        </mxCell>
        <mxCell id="37Him12QvSyiaNCZVlA_-55" style="edgeStyle=orthogonalEdgeStyle;rounded=0;orthogonalLoop=1;jettySize=auto;html=1;exitX=0.5;exitY=0;exitDx=0;exitDy=0;" edge="1" parent="37Him12QvSyiaNCZVlA_-42" source="37Him12QvSyiaNCZVlA_-51">
          <mxGeometry relative="1" as="geometry">
            <mxPoint x="110" y="20" as="targetPoint" />
          </mxGeometry>
        </mxCell>
        <mxCell id="37Him12QvSyiaNCZVlA_-62" style="edgeStyle=orthogonalEdgeStyle;rounded=0;orthogonalLoop=1;jettySize=auto;html=1;exitX=0.5;exitY=1;exitDx=0;exitDy=0;entryX=0.5;entryY=0;entryDx=0;entryDy=0;" edge="1" parent="37Him12QvSyiaNCZVlA_-42" source="37Him12QvSyiaNCZVlA_-51" target="37Him12QvSyiaNCZVlA_-52">
          <mxGeometry relative="1" as="geometry" />
        </mxCell>
        <mxCell id="37Him12QvSyiaNCZVlA_-51" value="&lt;p&gt;&lt;strong&gt;8254 定时器重置&lt;/strong&gt;：&lt;span style=&quot;background-color: initial;&quot;&gt;每次中断触发，重新设置定时器初值。&lt;/span&gt;&lt;/p&gt;" style="rounded=0;whiteSpace=wrap;html=1;" vertex="1" parent="37Him12QvSyiaNCZVlA_-42">
          <mxGeometry x="40" y="10" width="120" height="60" as="geometry" />
        </mxCell>
        <mxCell id="37Him12QvSyiaNCZVlA_-63" style="edgeStyle=orthogonalEdgeStyle;rounded=0;orthogonalLoop=1;jettySize=auto;html=1;exitX=0.5;exitY=1;exitDx=0;exitDy=0;entryX=0.5;entryY=0;entryDx=0;entryDy=0;" edge="1" parent="37Him12QvSyiaNCZVlA_-42" source="37Him12QvSyiaNCZVlA_-52" target="37Him12QvSyiaNCZVlA_-53">
          <mxGeometry relative="1" as="geometry" />
        </mxCell>
        <mxCell id="37Him12QvSyiaNCZVlA_-52" value="&lt;p&gt;&lt;strong&gt;字符显示逻辑&lt;/strong&gt;：&lt;span style=&quot;background-color: initial;&quot;&gt;从字符表加载点阵数据并显示。&lt;/span&gt;&lt;/p&gt;" style="rounded=0;whiteSpace=wrap;html=1;" vertex="1" parent="37Him12QvSyiaNCZVlA_-42">
          <mxGeometry x="40" y="90" width="120" height="60" as="geometry" />
        </mxCell>
        <mxCell id="37Him12QvSyiaNCZVlA_-53" value="&lt;p&gt;&lt;strong&gt;得分计算&lt;/strong&gt;：&lt;span style=&quot;background-color: initial;&quot;&gt;比较用户输入与当前字符。如果正确，增加得分；否则，显示错误信息。&lt;/span&gt;&lt;/p&gt;" style="rounded=0;whiteSpace=wrap;html=1;" vertex="1" parent="37Him12QvSyiaNCZVlA_-42">
          <mxGeometry x="40" y="170" width="120" height="80" as="geometry" />
        </mxCell>
        <mxCell id="37Him12QvSyiaNCZVlA_-56" style="edgeStyle=orthogonalEdgeStyle;rounded=0;orthogonalLoop=1;jettySize=auto;html=1;exitX=0.5;exitY=1;exitDx=0;exitDy=0;" edge="1" parent="37Him12QvSyiaNCZVlA_-42" source="37Him12QvSyiaNCZVlA_-53" target="37Him12QvSyiaNCZVlA_-53">
          <mxGeometry relative="1" as="geometry" />
        </mxCell>
        <mxCell id="37Him12QvSyiaNCZVlA_-43" value="得分显示" style="swimlane;horizontal=0;whiteSpace=wrap;html=1;" vertex="1" parent="1">
          <mxGeometry x="460" y="470" width="180" height="250" as="geometry" />
        </mxCell>
        <mxCell id="37Him12QvSyiaNCZVlA_-65" style="edgeStyle=orthogonalEdgeStyle;rounded=0;orthogonalLoop=1;jettySize=auto;html=1;exitX=0.5;exitY=1;exitDx=0;exitDy=0;entryX=0.5;entryY=0;entryDx=0;entryDy=0;" edge="1" parent="37Him12QvSyiaNCZVlA_-43" source="37Him12QvSyiaNCZVlA_-54" target="37Him12QvSyiaNCZVlA_-57">
          <mxGeometry relative="1" as="geometry" />
        </mxCell>
        <mxCell id="37Him12QvSyiaNCZVlA_-54" value="&lt;p&gt;&lt;strong&gt;设置 8255 控制寄存器&lt;/strong&gt;：&lt;span style=&quot;background-color: initial;&quot;&gt;将分数通过 8255 接口输出到外部显示器。&lt;/span&gt;&lt;/p&gt;" style="rounded=0;whiteSpace=wrap;html=1;" vertex="1" parent="37Him12QvSyiaNCZVlA_-43">
          <mxGeometry x="40" y="10" width="120" height="60" as="geometry" />
        </mxCell>
        <mxCell id="37Him12QvSyiaNCZVlA_-66" style="edgeStyle=orthogonalEdgeStyle;rounded=0;orthogonalLoop=1;jettySize=auto;html=1;exitX=0.5;exitY=1;exitDx=0;exitDy=0;entryX=0.5;entryY=0;entryDx=0;entryDy=0;" edge="1" parent="37Him12QvSyiaNCZVlA_-43" source="37Him12QvSyiaNCZVlA_-57" target="37Him12QvSyiaNCZVlA_-58">
          <mxGeometry relative="1" as="geometry" />
        </mxCell>
        <mxCell id="37Him12QvSyiaNCZVlA_-57" value="&lt;p&gt;&lt;strong&gt;显示分数&lt;/strong&gt;：&lt;span style=&quot;background-color: initial;&quot;&gt;将分数拆分并输出到相应的显示端口。&lt;/span&gt;&lt;/p&gt;" style="rounded=0;whiteSpace=wrap;html=1;" vertex="1" parent="37Him12QvSyiaNCZVlA_-43">
          <mxGeometry x="40" y="90" width="120" height="60" as="geometry" />
        </mxCell>
        <mxCell id="37Him12QvSyiaNCZVlA_-58" value="&lt;p&gt;&lt;strong&gt;延时显示&lt;/strong&gt;：&lt;span style=&quot;background-color: initial;&quot;&gt;使用 &lt;/span&gt;&lt;code style=&quot;background-color: initial;&quot;&gt;DALLY&lt;/code&gt;&lt;span style=&quot;background-color: initial;&quot;&gt; 子程序控制显示时间。&lt;/span&gt;&lt;/p&gt;" style="rounded=0;whiteSpace=wrap;html=1;" vertex="1" parent="37Him12QvSyiaNCZVlA_-43">
          <mxGeometry x="40" y="180" width="120" height="60" as="geometry" />
        </mxCell>
        <mxCell id="37Him12QvSyiaNCZVlA_-61" style="edgeStyle=orthogonalEdgeStyle;rounded=0;orthogonalLoop=1;jettySize=auto;html=1;exitX=1;exitY=0.5;exitDx=0;exitDy=0;entryX=0;entryY=0.5;entryDx=0;entryDy=0;" edge="1" parent="1" source="37Him12QvSyiaNCZVlA_-40" target="37Him12QvSyiaNCZVlA_-51">
          <mxGeometry relative="1" as="geometry" />
        </mxCell>
        <mxCell id="37Him12QvSyiaNCZVlA_-64" style="edgeStyle=orthogonalEdgeStyle;rounded=0;orthogonalLoop=1;jettySize=auto;html=1;" edge="1" parent="1" source="37Him12QvSyiaNCZVlA_-53" target="37Him12QvSyiaNCZVlA_-54">
          <mxGeometry relative="1" as="geometry" />
        </mxCell>
        <mxCell id="37Him12QvSyiaNCZVlA_-67" style="edgeStyle=orthogonalEdgeStyle;rounded=0;orthogonalLoop=1;jettySize=auto;html=1;exitX=1;exitY=0.5;exitDx=0;exitDy=0;entryX=0;entryY=0.5;entryDx=0;entryDy=0;" edge="1" parent="1" source="37Him12QvSyiaNCZVlA_-16" target="37Him12QvSyiaNCZVlA_-26">
          <mxGeometry relative="1" as="geometry" />
        </mxCell>
        <mxCell id="37Him12QvSyiaNCZVlA_-68" value="结束程序" style="swimlane;whiteSpace=wrap;html=1;" vertex="1" parent="1">
          <mxGeometry x="240" y="750" width="200" height="130" as="geometry" />
        </mxCell>
        <mxCell id="37Him12QvSyiaNCZVlA_-39" value="&lt;strong&gt;用户按下空格键结束游戏&lt;/strong&gt;：&lt;span style=&quot;background-color: initial;&quot;&gt;调用 &lt;/span&gt;&lt;code style=&quot;background-color: initial;&quot;&gt;ENDGAME&lt;/code&gt;&lt;span style=&quot;background-color: initial;&quot;&gt; 子程序，显示最终得分。&lt;/span&gt;&lt;span style=&quot;background-color: initial;&quot;&gt;调用 DOS 中断退出程序。&lt;/span&gt;" style="rounded=0;whiteSpace=wrap;html=1;" vertex="1" parent="37Him12QvSyiaNCZVlA_-68">
          <mxGeometry x="20" y="50" width="160" height="60" as="geometry" />
        </mxCell>
        <mxCell id="37Him12QvSyiaNCZVlA_-69" style="edgeStyle=orthogonalEdgeStyle;rounded=0;orthogonalLoop=1;jettySize=auto;html=1;exitX=0.5;exitY=1;exitDx=0;exitDy=0;" edge="1" parent="1" source="37Him12QvSyiaNCZVlA_-58" target="37Him12QvSyiaNCZVlA_-68">
          <mxGeometry relative="1" as="geometry" />
        </mxCell>
      </root>
    </mxGraphModel>
  </diagram>
</mxfile>
